<svg xmlns="http://www.w3.org/2000/svg" xmlns:xlink="http://www.w3.org/1999/xlink" width="500" zoomAndPan="magnify" viewBox="0 0 375 374.999991" height="500" preserveAspectRatio="xMidYMid meet" version="1.0"><defs><clipPath id="320874fb5a"><path d="M 28.90625 28.90625 L 346.09375 28.90625 L 346.09375 346.09375 L 28.90625 346.09375 Z M 28.90625 28.90625 " clip-rule="nonzero"/></clipPath><clipPath id="bfa718ade0"><path d="M 187.5 28.90625 C 99.910156 28.90625 28.90625 99.910156 28.90625 187.5 C 28.90625 275.089844 99.910156 346.09375 187.5 346.09375 C 275.089844 346.09375 346.09375 275.089844 346.09375 187.5 C 346.09375 99.910156 275.089844 28.90625 187.5 28.90625 Z M 187.5 28.90625 " clip-rule="nonzero"/></clipPath><clipPath id="23f9f12391"><path d="M 0.90625 0.90625 L 318.09375 0.90625 L 318.09375 318.09375 L 0.90625 318.09375 Z M 0.90625 0.90625 " clip-rule="nonzero"/></clipPath><clipPath id="5e0c6350cc"><path d="M 159.5 0.90625 C 71.910156 0.90625 0.90625 71.910156 0.90625 159.5 C 0.90625 247.089844 71.910156 318.09375 159.5 318.09375 C 247.089844 318.09375 318.09375 247.089844 318.09375 159.5 C 318.09375 71.910156 247.089844 0.90625 159.5 0.90625 Z M 159.5 0.90625 " clip-rule="nonzero"/></clipPath><radialGradient gradientTransform="matrix(1, 0, 0, 1, 0.906114, 0.90611)" gradientUnits="userSpaceOnUse" r="448.57167" cx="0" id="158fe54b55" cy="0" fx="0" fy="0"><stop stop-opacity="1" stop-color="rgb(100%, 42.068481%, 20.806885%)" offset="0"/><stop stop-opacity="1" stop-color="rgb(100%, 42.344666%, 20.875549%)" offset="0.0078125"/><stop stop-opacity="1" stop-color="rgb(100%, 42.675781%, 20.957947%)" offset="0.0195312"/><stop stop-opacity="1" stop-color="rgb(100%, 43.006897%, 21.040344%)" offset="0.03125"/><stop stop-opacity="1" stop-color="rgb(100%, 43.338013%, 21.124268%)" offset="0.0429688"/><stop stop-opacity="1" stop-color="rgb(100%, 43.669128%, 21.206665%)" offset="0.0546875"/><stop stop-opacity="1" stop-color="rgb(100%, 43.998718%, 21.289062%)" offset="0.0664062"/><stop stop-opacity="1" stop-color="rgb(100%, 44.329834%, 21.37146%)" offset="0.078125"/><stop stop-opacity="1" stop-color="rgb(100%, 44.66095%, 21.455383%)" offset="0.0898438"/><stop stop-opacity="1" stop-color="rgb(100%, 44.992065%, 21.537781%)" offset="0.101562"/><stop stop-opacity="1" stop-color="rgb(100%, 45.323181%, 21.620178%)" offset="0.113281"/><stop stop-opacity="1" stop-color="rgb(100%, 45.654297%, 21.702576%)" offset="0.125"/><stop stop-opacity="1" stop-color="rgb(100%, 45.985413%, 21.784973%)" offset="0.136719"/><stop stop-opacity="1" stop-color="rgb(100%, 46.316528%, 21.868896%)" offset="0.148438"/><stop stop-opacity="1" stop-color="rgb(100%, 46.646118%, 21.951294%)" offset="0.160156"/><stop stop-opacity="1" stop-color="rgb(100%, 46.977234%, 22.033691%)" offset="0.171875"/><stop stop-opacity="1" stop-color="rgb(100%, 47.30835%, 22.116089%)" offset="0.183594"/><stop stop-opacity="1" stop-color="rgb(100%, 47.639465%, 22.200012%)" offset="0.195312"/><stop stop-opacity="1" stop-color="rgb(100%, 47.970581%, 22.28241%)" offset="0.207031"/><stop stop-opacity="1" stop-color="rgb(100%, 48.301697%, 22.364807%)" offset="0.21875"/><stop stop-opacity="1" stop-color="rgb(100%, 48.632812%, 22.447205%)" offset="0.230469"/><stop stop-opacity="1" stop-color="rgb(100%, 48.963928%, 22.529602%)" offset="0.242188"/><stop stop-opacity="1" stop-color="rgb(100%, 49.240112%, 22.599792%)" offset="0.253906"/><stop stop-opacity="1" stop-color="rgb(100%, 49.459839%, 22.654724%)" offset="0.261719"/><stop stop-opacity="1" stop-color="rgb(100%, 49.681091%, 22.709656%)" offset="0.269531"/><stop stop-opacity="1" stop-color="rgb(100%, 49.900818%, 22.764587%)" offset="0.277344"/><stop stop-opacity="1" stop-color="rgb(100%, 50.12207%, 22.819519%)" offset="0.285156"/><stop stop-opacity="1" stop-color="rgb(100%, 50.341797%, 22.874451%)" offset="0.292969"/><stop stop-opacity="1" stop-color="rgb(100%, 50.563049%, 22.930908%)" offset="0.300781"/><stop stop-opacity="1" stop-color="rgb(100%, 50.784302%, 22.98584%)" offset="0.308594"/><stop stop-opacity="1" stop-color="rgb(100%, 51.004028%, 23.040771%)" offset="0.316406"/><stop stop-opacity="1" stop-color="rgb(100%, 51.225281%, 23.095703%)" offset="0.324219"/><stop stop-opacity="1" stop-color="rgb(100%, 51.445007%, 23.150635%)" offset="0.332031"/><stop stop-opacity="1" stop-color="rgb(100%, 51.66626%, 23.205566%)" offset="0.339844"/><stop stop-opacity="1" stop-color="rgb(100%, 51.887512%, 23.260498%)" offset="0.347656"/><stop stop-opacity="1" stop-color="rgb(100%, 52.107239%, 23.316956%)" offset="0.355469"/><stop stop-opacity="1" stop-color="rgb(100%, 52.328491%, 23.371887%)" offset="0.363281"/><stop stop-opacity="1" stop-color="rgb(100%, 52.548218%, 23.426819%)" offset="0.371094"/><stop stop-opacity="1" stop-color="rgb(100%, 52.76947%, 23.48175%)" offset="0.378906"/><stop stop-opacity="1" stop-color="rgb(100%, 52.990723%, 23.536682%)" offset="0.386719"/><stop stop-opacity="1" stop-color="rgb(100%, 53.210449%, 23.591614%)" offset="0.394531"/><stop stop-opacity="1" stop-color="rgb(100%, 53.431702%, 23.646545%)" offset="0.402344"/><stop stop-opacity="1" stop-color="rgb(100%, 53.651428%, 23.703003%)" offset="0.410156"/><stop stop-opacity="1" stop-color="rgb(100%, 53.872681%, 23.757935%)" offset="0.417969"/><stop stop-opacity="1" stop-color="rgb(100%, 54.092407%, 23.812866%)" offset="0.425781"/><stop stop-opacity="1" stop-color="rgb(100%, 54.31366%, 23.867798%)" offset="0.433594"/><stop stop-opacity="1" stop-color="rgb(100%, 54.534912%, 23.922729%)" offset="0.441406"/><stop stop-opacity="1" stop-color="rgb(100%, 54.754639%, 23.977661%)" offset="0.449219"/><stop stop-opacity="1" stop-color="rgb(100%, 54.975891%, 24.032593%)" offset="0.457031"/><stop stop-opacity="1" stop-color="rgb(100%, 55.195618%, 24.08905%)" offset="0.464844"/><stop stop-opacity="1" stop-color="rgb(100%, 55.41687%, 24.143982%)" offset="0.472656"/><stop stop-opacity="1" stop-color="rgb(100%, 55.638123%, 24.198914%)" offset="0.480469"/><stop stop-opacity="1" stop-color="rgb(100%, 55.857849%, 24.253845%)" offset="0.488281"/><stop stop-opacity="1" stop-color="rgb(100%, 56.079102%, 24.308777%)" offset="0.496094"/><stop stop-opacity="1" stop-color="rgb(100%, 56.35376%, 24.377441%)" offset="0.503906"/><stop stop-opacity="1" stop-color="rgb(100%, 56.684875%, 24.461365%)" offset="0.515625"/><stop stop-opacity="1" stop-color="rgb(100%, 57.015991%, 24.543762%)" offset="0.527344"/><stop stop-opacity="1" stop-color="rgb(100%, 57.347107%, 24.62616%)" offset="0.539062"/><stop stop-opacity="1" stop-color="rgb(100%, 57.678223%, 24.708557%)" offset="0.550781"/><stop stop-opacity="1" stop-color="rgb(100%, 58.009338%, 24.790955%)" offset="0.5625"/><stop stop-opacity="1" stop-color="rgb(100%, 58.340454%, 24.874878%)" offset="0.574219"/><stop stop-opacity="1" stop-color="rgb(100%, 58.67157%, 24.957275%)" offset="0.585938"/><stop stop-opacity="1" stop-color="rgb(100%, 59.00116%, 25.039673%)" offset="0.597656"/><stop stop-opacity="1" stop-color="rgb(100%, 59.332275%, 25.12207%)" offset="0.609375"/><stop stop-opacity="1" stop-color="rgb(100%, 59.663391%, 25.205994%)" offset="0.621094"/><stop stop-opacity="1" stop-color="rgb(100%, 59.939575%, 25.274658%)" offset="0.632812"/><stop stop-opacity="1" stop-color="rgb(100%, 60.160828%, 25.32959%)" offset="0.640625"/><stop stop-opacity="1" stop-color="rgb(100%, 60.380554%, 25.384521%)" offset="0.648438"/><stop stop-opacity="1" stop-color="rgb(100%, 60.601807%, 25.439453%)" offset="0.65625"/><stop stop-opacity="1" stop-color="rgb(100%, 60.821533%, 25.494385%)" offset="0.664062"/><stop stop-opacity="1" stop-color="rgb(100%, 61.042786%, 25.550842%)" offset="0.671875"/><stop stop-opacity="1" stop-color="rgb(100%, 61.264038%, 25.605774%)" offset="0.679688"/><stop stop-opacity="1" stop-color="rgb(100%, 61.483765%, 25.660706%)" offset="0.6875"/><stop stop-opacity="1" stop-color="rgb(100%, 61.705017%, 25.715637%)" offset="0.695312"/><stop stop-opacity="1" stop-color="rgb(100%, 61.924744%, 25.770569%)" offset="0.703125"/><stop stop-opacity="1" stop-color="rgb(100%, 62.145996%, 25.8255%)" offset="0.710938"/><stop stop-opacity="1" stop-color="rgb(100%, 62.367249%, 25.880432%)" offset="0.71875"/><stop stop-opacity="1" stop-color="rgb(100%, 62.586975%, 25.93689%)" offset="0.726562"/><stop stop-opacity="1" stop-color="rgb(100%, 62.808228%, 25.991821%)" offset="0.734375"/><stop stop-opacity="1" stop-color="rgb(100%, 63.027954%, 26.046753%)" offset="0.742188"/><stop stop-opacity="1" stop-color="rgb(100%, 63.249207%, 26.101685%)" offset="0.75"/><stop stop-opacity="1" stop-color="rgb(100%, 63.525391%, 26.170349%)" offset="0.757812"/><stop stop-opacity="1" stop-color="rgb(100%, 63.85498%, 26.252747%)" offset="0.769531"/><stop stop-opacity="1" stop-color="rgb(100%, 64.186096%, 26.33667%)" offset="0.78125"/><stop stop-opacity="1" stop-color="rgb(100%, 64.517212%, 26.419067%)" offset="0.792969"/><stop stop-opacity="1" stop-color="rgb(100%, 64.848328%, 26.501465%)" offset="0.804688"/><stop stop-opacity="1" stop-color="rgb(100%, 65.124512%, 26.570129%)" offset="0.816406"/><stop stop-opacity="1" stop-color="rgb(100%, 65.345764%, 26.625061%)" offset="0.824219"/><stop stop-opacity="1" stop-color="rgb(100%, 65.565491%, 26.681519%)" offset="0.832031"/><stop stop-opacity="1" stop-color="rgb(100%, 65.786743%, 26.73645%)" offset="0.839844"/><stop stop-opacity="1" stop-color="rgb(100%, 66.00647%, 26.791382%)" offset="0.847656"/><stop stop-opacity="1" stop-color="rgb(100%, 66.227722%, 26.846313%)" offset="0.855469"/><stop stop-opacity="1" stop-color="rgb(100%, 66.447449%, 26.901245%)" offset="0.863281"/><stop stop-opacity="1" stop-color="rgb(100%, 66.668701%, 26.956177%)" offset="0.871094"/><stop stop-opacity="1" stop-color="rgb(100%, 66.944885%, 27.024841%)" offset="0.878906"/><stop stop-opacity="1" stop-color="rgb(100%, 67.276001%, 27.108765%)" offset="0.890625"/><stop stop-opacity="1" stop-color="rgb(100%, 67.605591%, 27.191162%)" offset="0.902344"/><stop stop-opacity="1" stop-color="rgb(100%, 67.881775%, 27.259827%)" offset="0.914062"/><stop stop-opacity="1" stop-color="rgb(100%, 68.103027%, 27.314758%)" offset="0.921875"/><stop stop-opacity="1" stop-color="rgb(100%, 68.322754%, 27.36969%)" offset="0.929688"/><stop stop-opacity="1" stop-color="rgb(100%, 68.544006%, 27.426147%)" offset="0.9375"/><stop stop-opacity="1" stop-color="rgb(100%, 68.82019%, 27.494812%)" offset="0.945312"/><stop stop-opacity="1" stop-color="rgb(100%, 69.096375%, 27.563477%)" offset="0.957031"/><stop stop-opacity="1" stop-color="rgb(100%, 69.316101%, 27.618408%)" offset="0.964844"/><stop stop-opacity="1" stop-color="rgb(100%, 69.592285%, 27.687073%)" offset="0.972656"/><stop stop-opacity="1" stop-color="rgb(100%, 69.868469%, 27.755737%)" offset="0.984375"/><stop stop-opacity="1" stop-color="rgb(100%, 70.088196%, 27.812195%)" offset="0.992188"/><stop stop-opacity="1" stop-color="rgb(100%, 70.199585%, 27.839661%)" offset="1"/></radialGradient><clipPath id="c1a5b08ffa"><rect x="0" width="319" y="0" height="319"/></clipPath><clipPath id="11570fb591"><path d="M 96 73.410156 L 301.410156 73.410156 L 301.410156 235 L 96 235 Z M 96 73.410156 " clip-rule="nonzero"/></clipPath><clipPath id="15624308c0"><path d="M 73.410156 140 L 279 140 L 279 301.410156 L 73.410156 301.410156 Z M 73.410156 140 " clip-rule="nonzero"/></clipPath><clipPath id="586938812e"><path d="M 149.878906 145.929688 L 224.878906 145.929688 L 224.878906 229.179688 L 149.878906 229.179688 Z M 149.878906 145.929688 " clip-rule="nonzero"/></clipPath><clipPath id="2aa74bc6bb"><path d="M 184 189 L 224 189 L 224 229.179688 L 184 229.179688 Z M 184 189 " clip-rule="nonzero"/></clipPath></defs><g clip-path="url(#320874fb5a)"><g clip-path="url(#bfa718ade0)"><g transform="matrix(1, 0, 0, 1, 28, 28)"><g clip-path="url(#c1a5b08ffa)"><g clip-path="url(#23f9f12391)"><g clip-path="url(#5e0c6350cc)"><path fill="url(#158fe54b55)" d="M 0.90625 0.90625 L 0.90625 318.09375 L 318.09375 318.09375 L 318.09375 0.90625 Z M 0.90625 0.90625 " fill-rule="nonzero"/></g></g></g></g></g></g><g clip-path="url(#11570fb591)"><path fill="#ffffff" d="M 256.308594 187.640625 C 256.308594 205.726562 249.242188 222.144531 237.789062 234.414062 L 269.8125 234.414062 C 273.722656 227.660156 276.78125 220.339844 278.839844 212.664062 L 300.519531 204.984375 C 301.445312 199.300781 301.871094 193.542969 301.871094 187.640625 C 301.871094 181.742188 301.445312 175.984375 300.519531 170.296875 L 278.839844 162.621094 C 276.78125 154.945312 273.722656 147.621094 269.8125 140.871094 L 279.695312 120.042969 C 272.871094 110.660156 264.625 102.414062 255.242188 95.589844 L 234.414062 105.46875 C 227.660156 101.5625 220.339844 98.503906 212.664062 96.441406 L 204.984375 74.761719 C 199.300781 73.839844 193.542969 73.410156 187.640625 73.410156 C 181.742188 73.410156 175.984375 73.839844 170.296875 74.761719 L 162.621094 96.441406 C 154.945312 98.503906 147.621094 101.5625 140.871094 105.46875 L 120.042969 95.589844 C 111.027344 102.144531 103.097656 110.046875 96.429688 118.976562 L 187.640625 118.976562 C 225.527344 118.976562 256.308594 149.753906 256.308594 187.640625 Z M 256.308594 187.640625 " fill-opacity="1" fill-rule="nonzero"/></g><g clip-path="url(#15624308c0)"><path fill="#ffffff" d="M 187.640625 256.308594 C 149.753906 256.308594 118.976562 225.527344 118.976562 187.640625 C 118.976562 169.558594 126.042969 153.136719 137.492188 140.871094 L 105.46875 140.871094 C 101.5625 147.621094 98.503906 154.945312 96.441406 162.621094 L 74.761719 170.296875 C 73.839844 175.984375 73.410156 181.742188 73.410156 187.640625 C 73.410156 193.542969 73.839844 199.300781 74.761719 204.984375 L 96.441406 212.664062 C 98.503906 220.339844 101.5625 227.660156 105.46875 234.414062 L 95.589844 255.242188 C 102.414062 264.625 110.660156 272.871094 120.042969 279.695312 L 140.871094 269.8125 C 147.621094 273.722656 154.945312 276.78125 162.621094 278.839844 L 170.296875 300.519531 C 175.984375 301.445312 181.742188 301.871094 187.640625 301.871094 C 193.542969 301.871094 199.300781 301.445312 204.984375 300.519531 L 212.664062 278.839844 C 220.339844 276.78125 227.660156 273.722656 234.414062 269.8125 L 255.242188 279.695312 C 264.253906 273.140625 272.1875 265.234375 278.855469 256.308594 Z M 187.640625 256.308594 " fill-opacity="1" fill-rule="nonzero"/></g><g clip-path="url(#586938812e)"><path fill="#ffffff" d="M 223.464844 159.9375 L 218.320312 159.9375 L 218.320312 154.792969 C 218.320312 153.878906 217.578125 153.140625 216.667969 153.140625 L 211.523438 153.140625 L 211.523438 147.609375 C 211.523438 146.695312 210.785156 145.957031 209.875 145.957031 L 171.890625 145.957031 C 171.886719 145.957031 171.882812 145.957031 171.882812 145.957031 C 171.859375 145.957031 171.839844 145.960938 171.820312 145.960938 C 171.8125 145.960938 171.804688 145.960938 171.800781 145.960938 C 171.777344 145.960938 171.753906 145.964844 171.730469 145.964844 C 171.71875 145.96875 171.710938 145.96875 171.699219 145.96875 C 171.6875 145.972656 171.675781 145.972656 171.660156 145.972656 C 171.648438 145.976562 171.636719 145.976562 171.621094 145.980469 C 171.613281 145.980469 171.605469 145.984375 171.597656 145.984375 C 171.566406 145.992188 171.535156 145.996094 171.507812 146.003906 C 171.503906 146.003906 171.503906 146.003906 171.5 146.003906 C 171.484375 146.007812 171.464844 146.015625 171.449219 146.019531 C 171.445312 146.019531 171.441406 146.019531 171.4375 146.023438 C 171.386719 146.035156 171.332031 146.054688 171.28125 146.074219 C 171.28125 146.074219 171.277344 146.078125 171.273438 146.078125 C 171.257812 146.085938 171.242188 146.089844 171.226562 146.097656 C 171.222656 146.101562 171.21875 146.101562 171.210938 146.105469 C 171.167969 146.125 171.121094 146.148438 171.078125 146.171875 C 171.070312 146.175781 171.0625 146.183594 171.050781 146.1875 C 171.042969 146.191406 171.03125 146.199219 171.019531 146.207031 C 171.011719 146.210938 171 146.21875 170.988281 146.226562 C 170.980469 146.234375 170.972656 146.238281 170.964844 146.242188 C 170.945312 146.257812 170.925781 146.269531 170.910156 146.28125 C 170.902344 146.285156 170.898438 146.292969 170.890625 146.296875 C 170.878906 146.304688 170.863281 146.316406 170.851562 146.328125 C 170.84375 146.332031 170.839844 146.335938 170.832031 146.34375 C 170.820312 146.355469 170.804688 146.367188 170.792969 146.375 C 170.789062 146.382812 170.78125 146.386719 170.777344 146.390625 C 170.773438 146.394531 170.773438 146.394531 170.769531 146.398438 L 150.410156 165.234375 C 150.375 165.265625 150.34375 165.300781 150.3125 165.332031 C 150.308594 165.335938 150.304688 165.34375 150.300781 165.347656 C 150.289062 165.359375 150.277344 165.375 150.265625 165.386719 C 150.257812 165.394531 150.253906 165.398438 150.25 165.40625 C 150.238281 165.417969 150.226562 165.433594 150.21875 165.449219 C 150.214844 165.453125 150.207031 165.457031 150.203125 165.464844 C 150.191406 165.484375 150.175781 165.503906 150.164062 165.519531 C 150.160156 165.527344 150.15625 165.535156 150.148438 165.542969 C 150.140625 165.554688 150.132812 165.566406 150.125 165.578125 C 150.121094 165.589844 150.113281 165.601562 150.109375 165.609375 C 150.101562 165.621094 150.097656 165.628906 150.089844 165.636719 C 150.085938 165.652344 150.078125 165.664062 150.070312 165.675781 C 150.070312 165.679688 150.066406 165.6875 150.0625 165.691406 C 150.039062 165.738281 150.015625 165.789062 149.996094 165.839844 C 149.996094 165.84375 149.992188 165.847656 149.992188 165.847656 C 149.964844 165.921875 149.941406 165.992188 149.921875 166.070312 C 149.921875 166.074219 149.921875 166.082031 149.921875 166.085938 C 149.917969 166.101562 149.914062 166.117188 149.910156 166.132812 C 149.910156 166.140625 149.90625 166.148438 149.90625 166.15625 C 149.902344 166.179688 149.898438 166.199219 149.894531 166.222656 C 149.894531 166.238281 149.890625 166.25 149.890625 166.265625 C 149.890625 166.277344 149.886719 166.285156 149.886719 166.296875 C 149.886719 166.3125 149.882812 166.332031 149.882812 166.347656 C 149.882812 166.355469 149.882812 166.363281 149.882812 166.367188 C 149.878906 166.394531 149.878906 166.421875 149.878906 166.445312 L 149.878906 227.386719 C 149.878906 228.296875 150.617188 229.035156 151.53125 229.035156 L 188.832031 229.035156 C 189.742188 229.035156 190.480469 228.296875 190.480469 227.386719 C 190.480469 226.476562 189.742188 225.738281 188.832031 225.738281 L 153.179688 225.738281 L 153.179688 168.097656 L 171.890625 168.097656 C 172.800781 168.097656 173.542969 167.359375 173.542969 166.449219 L 173.542969 149.257812 L 208.222656 149.257812 L 208.222656 186.21875 C 208.222656 187.132812 208.960938 187.871094 209.875 187.871094 C 210.785156 187.871094 211.523438 187.132812 211.523438 186.21875 L 211.523438 156.441406 L 215.019531 156.441406 L 215.019531 189.667969 C 215.019531 190.578125 215.757812 191.320312 216.667969 191.320312 C 217.582031 191.320312 218.320312 190.578125 218.320312 189.667969 L 218.320312 163.238281 L 221.8125 163.238281 L 221.8125 196.859375 C 221.8125 197.769531 222.550781 198.507812 223.464844 198.507812 C 224.375 198.507812 225.113281 197.769531 225.113281 196.859375 L 225.113281 161.585938 C 225.113281 160.675781 224.375 159.9375 223.464844 159.9375 Z M 170.242188 164.796875 L 155.742188 164.796875 L 170.242188 151.382812 Z M 170.242188 164.796875 " fill-opacity="1" fill-rule="nonzero"/></g><g clip-path="url(#2aa74bc6bb)"><path fill="#ffffff" d="M 218.140625 195.125 C 216.316406 193.300781 214.195312 191.867188 211.828125 190.867188 C 209.378906 189.832031 206.777344 189.304688 204.09375 189.304688 C 201.414062 189.304688 198.8125 189.832031 196.359375 190.867188 C 193.996094 191.867188 191.871094 193.300781 190.046875 195.125 C 188.222656 196.949219 186.789062 199.074219 185.789062 201.4375 C 184.753906 203.886719 184.226562 206.488281 184.226562 209.171875 C 184.226562 211.851562 184.753906 214.453125 185.789062 216.90625 C 186.789062 219.269531 188.222656 221.394531 190.046875 223.21875 C 191.871094 225.042969 193.996094 226.476562 196.359375 227.476562 C 198.8125 228.511719 201.414062 229.039062 204.09375 229.039062 C 206.777344 229.039062 209.378906 228.511719 211.828125 227.476562 C 214.195312 226.476562 216.316406 225.042969 218.140625 223.21875 C 219.964844 221.394531 221.398438 219.269531 222.398438 216.90625 C 223.433594 214.453125 223.960938 211.851562 223.960938 209.171875 C 223.960938 206.488281 223.433594 203.886719 222.398438 201.4375 C 221.398438 199.074219 219.964844 196.949219 218.140625 195.125 Z M 219.359375 215.617188 C 218.523438 217.589844 217.328125 219.363281 215.808594 220.886719 C 214.285156 222.40625 212.515625 223.601562 210.542969 224.4375 C 208.5 225.300781 206.332031 225.738281 204.09375 225.738281 C 201.859375 225.738281 199.6875 225.300781 197.648438 224.4375 C 195.675781 223.601562 193.902344 222.40625 192.382812 220.886719 C 190.859375 219.363281 189.664062 217.589844 188.832031 215.617188 C 187.964844 213.578125 187.527344 211.410156 187.527344 209.171875 C 187.527344 206.933594 187.964844 204.765625 188.832031 202.722656 C 189.664062 200.75 190.859375 198.980469 192.382812 197.457031 C 193.902344 195.9375 195.675781 194.742188 197.648438 193.90625 C 199.6875 193.042969 201.859375 192.605469 204.09375 192.605469 C 206.332031 192.605469 208.5 193.042969 210.542969 193.90625 C 212.515625 194.742188 214.285156 195.9375 215.808594 197.457031 C 217.328125 198.980469 218.523438 200.75 219.359375 202.722656 C 220.222656 204.765625 220.660156 206.933594 220.660156 209.171875 C 220.660156 211.410156 220.222656 213.578125 219.359375 215.617188 Z M 219.359375 215.617188 " fill-opacity="1" fill-rule="nonzero"/></g><path fill="#ffffff" d="M 179.941406 160.394531 L 199.703125 160.394531 C 200.613281 160.394531 201.351562 159.65625 201.351562 158.746094 C 201.351562 157.832031 200.613281 157.09375 199.703125 157.09375 L 179.941406 157.09375 C 179.03125 157.09375 178.292969 157.832031 178.292969 158.746094 C 178.292969 159.65625 179.03125 160.394531 179.941406 160.394531 Z M 179.941406 160.394531 " fill-opacity="1" fill-rule="nonzero"/><path fill="#ffffff" d="M 179.941406 169.8125 L 199.703125 169.8125 C 200.613281 169.8125 201.351562 169.074219 201.351562 168.164062 C 201.351562 167.253906 200.613281 166.511719 199.703125 166.511719 L 179.941406 166.511719 C 179.03125 166.511719 178.292969 167.253906 178.292969 168.164062 C 178.292969 169.074219 179.03125 169.8125 179.941406 169.8125 Z M 179.941406 169.8125 " fill-opacity="1" fill-rule="nonzero"/><path fill="#ffffff" d="M 160.390625 177.582031 C 160.390625 178.496094 161.128906 179.234375 162.039062 179.234375 L 199.703125 179.234375 C 200.613281 179.234375 201.351562 178.496094 201.351562 177.582031 C 201.351562 176.671875 200.613281 175.933594 199.703125 175.933594 L 162.039062 175.933594 C 161.128906 175.933594 160.390625 176.671875 160.390625 177.582031 Z M 160.390625 177.582031 " fill-opacity="1" fill-rule="nonzero"/><path fill="#ffffff" d="M 162.039062 188.652344 L 195.238281 188.652344 C 196.148438 188.652344 196.886719 187.914062 196.886719 187.003906 C 196.886719 186.089844 196.148438 185.351562 195.238281 185.351562 L 162.039062 185.351562 C 161.128906 185.351562 160.390625 186.089844 160.390625 187.003906 C 160.390625 187.914062 161.128906 188.652344 162.039062 188.652344 Z M 162.039062 188.652344 " fill-opacity="1" fill-rule="nonzero"/><path fill="#ffffff" d="M 185.296875 196.421875 C 185.296875 195.511719 184.558594 194.773438 183.648438 194.773438 L 162.039062 194.773438 C 161.128906 194.773438 160.390625 195.511719 160.390625 196.421875 C 160.390625 197.332031 161.128906 198.074219 162.039062 198.074219 L 183.648438 198.074219 C 184.558594 198.074219 185.296875 197.332031 185.296875 196.421875 Z M 185.296875 196.421875 " fill-opacity="1" fill-rule="nonzero"/><path fill="#ffffff" d="M 162.039062 207.492188 L 180.171875 207.492188 C 181.085938 207.492188 181.824219 206.753906 181.824219 205.839844 C 181.824219 204.929688 181.085938 204.191406 180.171875 204.191406 L 162.039062 204.191406 C 161.128906 204.191406 160.390625 204.929688 160.390625 205.839844 C 160.390625 206.753906 161.128906 207.492188 162.039062 207.492188 Z M 162.039062 207.492188 " fill-opacity="1" fill-rule="nonzero"/><path fill="#ffffff" d="M 162.039062 216.910156 L 180.871094 216.910156 C 181.78125 216.910156 182.523438 216.171875 182.523438 215.261719 C 182.523438 214.351562 181.78125 213.609375 180.871094 213.609375 L 162.039062 213.609375 C 161.128906 213.609375 160.390625 214.351562 160.390625 215.261719 C 160.390625 216.171875 161.128906 216.910156 162.039062 216.910156 Z M 162.039062 216.910156 " fill-opacity="1" fill-rule="nonzero"/><path fill="#ffffff" d="M 200.039062 213.4375 L 194.71875 208.113281 L 191.449219 211.382812 L 200.039062 219.972656 L 216.046875 203.964844 L 212.777344 200.699219 Z M 200.039062 213.4375 " fill-opacity="1" fill-rule="nonzero"/></svg>